# xmcd
#
# Track frame offsets: 
#        200
#        40860
#        64352
#        84300
#        107230
#        120410
#        148475
#        156985
#        169000
#        173105
#        187672
#        200380
#        210142
#        215425
#        218375
#
# Disc length: 3043 seconds
#
# Revision: 1
# Processed by: cddbd v1.5.2PL0 Copyright (c) Steve Scherf et al.
# Submitted via: ExactAudioCopy v0.95b4
#
DISCID=cd0be10f
DTITLE=Various Artist - Stormy Monday Sountrack
DYEAR=1988
DGENRE=Soundtrack
TTITLE0=Stormy Monday - B.B. King
TTITLE1=Kate and Brendan - Mike Figgis
TTITLE2=Weegee - Mike Figgis
TTITLE3=The Thrill Is Gone - B.B. King
TTITLE4=On The Quay - Mike Figgis
TTITLE5=Dawn and the Tyne - Mike Figgis
TTITLE6=The Road to Poland - Mike Figgis
TTITLE7=Finney Makes a Point - Mike Figgis
TTITLE8=Star Spangled Banner - Krakow Jazz Ensemble
TTITLE9=Carrie - Mike Figgis
TTITLE10=Just a Closer Walk With Thee - Mike Figgis
TTITLE11=Krakow Dawn - Krakow Jazz Ensemble
TTITLE12=(I Won't Forget You) - Stephanie de Sykes
TTITLE13=Train Across The River - Mike Figgis
TTITLE14=Muzac for Lover - Mike Figgis
EXTD=
EXTT0=
EXTT1=
EXTT2=
EXTT3=
EXTT4=
EXTT5=
EXTT6=
EXTT7=
EXTT8=
EXTT9=
EXTT10=
EXTT11=
EXTT12=
EXTT13=
EXTT14=
PLAYORDER=
